<svg class="svg-icon" style="width: 1em; height: 1em;vertical-align: middle;fill: currentColor;overflow: hidden;" viewBox="0 0 1024 1024" version="1.1" xmlns="http://www.w3.org/2000/svg"><path d="M793.55485 618.734392L477.866667 205.522399c-12.641975-16.253968-29.257143-25.283951-46.955909-25.283951-19.865961 0-37.925926 11.197178-49.484303 30.70194L98.968607 681.583069c-19.865961 33.230335-17.337566 83.075838 5.779188 114.138977l24.200353 32.146737c18.059965 23.839153 50.567901 39.370723 83.075838 39.370723 8.668783 0 16.976367-1.083598 24.922751-3.250793l48.761905-14.086773 14.447972 27.451146c13.003175 24.922751 43.343915 40.454321 75.129453 40.454321 7.585185 0 15.17037-0.722399 22.755556-2.889594l179.15485-44.427513c20.22716-5.05679 36.481129-18.059965 44.066314-35.397531 7.585185-17.337566 6.501587-38.287125-3.611993-56.708289l-11.558378-21.671958 157.482893-45.87231c20.58836-6.140388 35.75873-19.504762 41.537919-37.203528 5.417989-17.698765 1.444797-37.564727-11.558378-54.902292z m-214.191182 180.238448c3.611993 6.501587 4.334392 13.003175 2.167196 18.421164-2.167196 5.05679-7.585185 9.029982-14.809171 10.835978l-179.15485 44.427514c-20.58836 5.05679-42.982716-3.973192-48.761905-15.53157l-10.474779-19.865961 235.14074-68.266667 15.892769 29.979542z m184.211641-139.061729c-1.444797 3.973192-5.779189 7.223986-12.641976 9.391182L224.665961 822.089594c-3.973192 1.083598-8.307584 1.805996-12.641975 1.805997-18.782363 0-38.648325-9.029982-48.400706-22.033157l-24.200352-32.146737c-12.641975-16.976367-14.086772-47.678307-3.250794-65.738272l282.457848-470.642681c3.611993-6.140388 8.307584-9.752381 12.280776-9.752381s8.668783 2.889594 12.641976 8.307584l315.688183 413.211993c3.973192 5.417989 5.779189 10.835979 4.334392 14.809171zM640.724205 113.42019l39.930582 16.868008-65.073665 154.055111-39.92697-16.864395zM870.764811 225.713439l26.020797 34.664296-184.861798 138.790829-26.02441-34.660684zM930.283231 448.262772l7.982504 42.603457-155.50352 29.123499-7.978892-42.599844z" fill="orange" /></svg>