<svg class="svg-icon" style="width: 1em; height: 1em;vertical-align: middle;fill: #b84343;overflow: hidden;" viewBox="0 0 1024 1024" version="1.1" xmlns="http://www.w3.org/2000/svg"><path d="M907.636364 533.783273C907.636364 316.090182 730.484364 139.636364 512 139.636364s-395.636364 176.453818-395.636364 394.146909c0 119.668364 53.713455 226.676364 138.24 298.961455-2.466909 2.234182-4.887273 4.561455-6.795636 7.447273l-47.057455 72.145455c-9.728 14.941091-7.028364 32.488727 6.144 39.191273 13.125818 6.702545 31.650909 0.046545 41.425455-14.894545l47.057455-72.145455c0.186182-0.279273 0.186182-0.605091 0.372364-0.884364 62.184727 40.541091 136.378182 64.325818 216.250182 64.325818s154.065455-23.784727 216.250182-64.325818c0.186182 0.279273 0.186182 0.605091 0.372364 0.884364l47.057455 72.145455c9.728 14.941091 28.299636 21.597091 41.425455 14.894545 13.125818-6.702545 15.872-24.250182 6.144-39.191273l-47.057455-72.145455c-1.908364-2.885818-4.328727-5.213091-6.795636-7.447273C853.922909 760.459636 907.636364 653.451636 907.636364 533.783273zM512 875.380364c-189.346909 0-342.900364-152.948364-342.900364-341.597091 0-188.648727 153.506909-341.597091 342.900364-341.597091s342.900364 152.948364 342.900364 341.597091C854.900364 722.432 701.346909 875.380364 512 875.380364zM627.2 410.437818 512 525.637818 429.707636 443.345455c-9.076364-9.076364-23.831273-9.076364-32.907636 0-9.076364 9.076364-9.076364 23.831273 0 32.907636L479.092364 558.545455l-16.477091 16.430545c-9.076364 9.076364-9.076364 23.831273 0 32.907636 9.076364 9.076364 23.831273 9.076364 32.907636 0L512 591.453091l16.477091 16.477091c9.076364 9.076364 23.831273 9.076364 32.907636 0 9.076364-9.076364 9.076364-23.831273 0-32.907636L544.907636 558.545455l115.2-115.2c9.076364-9.076364 9.076364-23.831273 0-32.907636C651.031273 401.361455 636.276364 401.361455 627.2 410.437818zM139.636364 209.454545C139.636364 145.175273 191.720727 93.090909 256 93.090909c23.365818 0 45.009455 7.028364 63.255273 18.897455 16.151273-7.354182 32.674909-14.056727 49.710545-19.549091C339.688727 64.139636 299.938909 46.545455 256 46.545455 166.027636 46.545455 93.090909 119.482182 93.090909 209.454545c0 30.068364 8.704 57.902545 22.946909 82.059636C125.44 276.293818 135.540364 261.585455 146.571636 247.575273 142.382545 235.566545 139.636364 222.906182 139.636364 209.454545zM768 46.545455c-43.938909 0-83.688727 17.594182-112.965818 45.893818 17.082182 5.492364 33.605818 12.194909 49.710545 19.549091C722.990545 100.119273 744.634182 93.090909 768 93.090909 832.279273 93.090909 884.363636 145.175273 884.363636 209.454545c0 13.451636-2.746182 26.112-6.935273 38.120727 11.031273 14.010182 21.131636 28.718545 30.533818 43.938909C922.205091 267.357091 930.909091 239.522909 930.909091 209.454545 930.909091 119.482182 857.972364 46.545455 768 46.545455z"  /></svg>